<svg id="Ebene_8" data-name="Ebene 8" xmlns="http://www.w3.org/2000/svg" viewBox="0 0 40 40"><circle cx="20" cy="20" r="18.8" style="fill:#ebd778"/><path d="M20,39a19,19,0,0,1-7.4-1.49A19,19,0,0,1,2.49,27.4a19.12,19.12,0,0,1,0-14.8A19,19,0,0,1,12.6,2.49a19.12,19.12,0,0,1,14.8,0A19,19,0,0,1,37.51,12.6a19.12,19.12,0,0,1,0,14.8A19,19,0,0,1,27.4,37.51,19,19,0,0,1,20,39ZM20,1.39A18.61,18.61,0,1,0,38.61,20,18.63,18.63,0,0,0,20,1.39Z" style="fill:#91843f"/><path d="M20,38.43A18.45,18.45,0,0,1,12.84,3,18.5,18.5,0,0,1,27.2,3,18.44,18.44,0,0,1,37,12.8a18.5,18.5,0,0,1,0,14.36A18.44,18.44,0,0,1,20,38.43ZM20,1.77A18.21,18.21,0,1,0,38.23,20,18.22,18.22,0,0,0,20,1.77Z" style="fill:#fff8d4"/><path d="M20,38.13A18.17,18.17,0,0,1,3.26,12.89,18.18,18.18,0,0,1,32.88,7.12,18.17,18.17,0,0,1,20,38.13ZM20,2.51A17.46,17.46,0,1,0,37.49,20,17.49,17.49,0,0,0,20,2.51Z" style="fill:#a6922e"/><path d="M29.21,5.16c5.88,3.88,8.25,11.48,6.9,17.58S30.05,34.5,23.94,35.85c-9.29,2.06-13.95-1-18.72-6.51.94,1.92,4.22,5.38,6.18,6.23A21.47,21.47,0,0,0,22.64,37.5a17.48,17.48,0,0,0,9.82-5.29C37.9,26.62,38.34,20.26,36.57,14,35.58,10.46,32.18,6.45,29.21,5.16Z" style="fill:#b8a235"/><path d="M2.66,23.46A19.08,19.08,0,0,1,9.49,6.92,19.05,19.05,0,0,1,27.1,3.68,21.29,21.29,0,0,0,22.61,2.2a15,15,0,0,0-6.6.43A20,20,0,0,0,9,6.14,18.11,18.11,0,0,0,3.12,14,15,15,0,0,0,2.66,23.46Z" style="fill:#b8a235"/><path d="M14.25,4.19a18.49,18.49,0,0,1,11.8,1,22.6,22.6,0,0,1,9.24,7.51A15.42,15.42,0,0,0,26.6,3.63,14.86,14.86,0,0,0,14.25,4.19Z" style="fill:#fff"/><path d="M3,18.72c-.8,3.64.58,7.5,2.91,10.4A29.69,29.69,0,0,0,14.69,36,16.19,16.19,0,0,1,3.18,26C2.3,23.58,2,20.85,3,18.72Z" style="fill:#fff"/><path d="M16.67,36.46l2.83.06a8.35,8.35,0,0,0-3-.15C16.53,36.33,16.59,36.28,16.67,36.46Z" style="fill:#fff"/><path d="M22,36.08a2.64,2.64,0,0,0,2.4-.63A12.74,12.74,0,0,1,22,36.08Z" style="fill:#fff"/><path d="M35.55,13.93l.55,2.56a2.31,2.31,0,0,0-.65-2.58C35.46,14,35.47,14,35.55,13.93Z" style="fill:#fff"/><path d="M36.24,18.63V21.1A2.55,2.55,0,0,0,36.24,18.63Z" style="fill:#fff"/><path d="M13.11,4.61a4.27,4.27,0,0,0-2,1.39A8.78,8.78,0,0,0,13,4.71C12.89,4.74,12.8,4.77,13.11,4.61Z" style="fill:#fff"/><path d="M25.87,35.1l-.65.32a.63.63,0,0,0,.79-.2C25.93,35.19,25.86,35.16,25.87,35.1Z" style="fill:#fff"/><path d="M17.56,7A9.38,9.38,0,0,0,11,9.62c-1.73,1.68-2.12,3.67-2.16,6.09a6.84,6.84,0,0,1,0,1.63c-.18.77-1.43,1.92-1.77,2.64A6.51,6.51,0,0,0,8,26.55c1.39,1.86,19.69,4,19.69,4s-5.58,3.76-16.27.39C7.83,29.78,5,25.22,4.63,23.19a7,7,0,0,1,2.75-6.13c-.55-3.29-.19-5.64,2.26-7.89,2.68-2.46,7-3,10.29-2.77a2.7,2.7,0,0,1,2.12.89A19.77,19.77,0,0,0,17.56,7Z" style="fill:#ccb53f"/><path d="M31.38,13.21A9.45,9.45,0,0,1,32.31,16a3.21,3.21,0,0,1-.87,2.74c0,.41.1.82.14,1.24,1.55.48,2.24,2.41,1.91,4A10,10,0,0,1,31,28.15,14.11,14.11,0,0,0,33.42,25a4.8,4.8,0,0,0,.33-3.86,19,19,0,0,1-1.12-2.32,8.07,8.07,0,0,1,0-2.14A7.07,7.07,0,0,0,30,11,11.25,11.25,0,0,0,31.38,13.21Z" style="fill:#ccb53f"/><path d="M31.74,20.94a8.25,8.25,0,0,0-.24-2.32A13.57,13.57,0,0,1,27.34,9.7a21,21,0,0,0-7-2.91A11.11,11.11,0,0,0,13.67,7.9a12.7,12.7,0,0,0-5,4.63,9.38,9.38,0,0,0,.37,6.37,8.69,8.69,0,0,0,4.45,4.54c2.67.76,5.42,1.53,8.19,1.26a26.76,26.76,0,0,0,4.72-1.12C28.35,23,30.44,22.52,31.74,20.94Z" style="fill:#fff1ab"/><path d="M20.53,24.84a26,26,0,0,1-7.06-1.32h0A8.85,8.85,0,0,1,9,18.93a9.6,9.6,0,0,1-.37-6.43h0a12.77,12.77,0,0,1,5-4.66A11.2,11.2,0,0,1,20.37,6.7a21,21,0,0,1,7,2.91l.06,0v0a13.48,13.48,0,0,0,4.13,8.87h0v0a8.78,8.78,0,0,1,.24,2.34v0l0,0c-1.25,1.52-3.19,2.07-5.06,2.59l-.31.09-.77.22a22.29,22.29,0,0,1-4,.9A11.13,11.13,0,0,1,20.53,24.84Zm-7-1.48c2.51.71,5.36,1.53,8.15,1.25a22,22,0,0,0,3.94-.89l.77-.22.31-.09c1.84-.52,3.74-1.05,4.95-2.51a8.37,8.37,0,0,0-.23-2.23,13.7,13.7,0,0,1-4.17-8.92,21.17,21.17,0,0,0-6.91-2.88A11.08,11.08,0,0,0,13.71,8a12.53,12.53,0,0,0-5,4.59,9.32,9.32,0,0,0,.37,6.29A8.67,8.67,0,0,0,13.53,23.36Z" style="fill:#91843f"/><path d="M8.53,17.37a4.39,4.39,0,0,0,1,2.42,18.17,18.17,0,0,1,11.19-2.2,6.64,6.64,0,0,1-.32-3.07A16.19,16.19,0,0,0,8.53,17.37Z" style="fill:#ebd778"/><path d="M28.57,20.75l1.5,1.2a.51.51,0,0,0,.2.12.56.56,0,0,0,.43-.15c.42-.3,1-.53,1-1a2.77,2.77,0,0,0-.05-1,3.94,3.94,0,0,0-2.45-1.71,7.68,7.68,0,0,1,.13,1.43A1.35,1.35,0,0,1,28.57,20.75Z" style="fill:#ebd778"/><path d="M12.91,22.93a6.11,6.11,0,0,1,3.65-2.17,14,14,0,0,1,4.33-.1,10.2,10.2,0,0,1,3.19.71,4,4,0,0,1,2.23,2.29,13.33,13.33,0,0,0,4-1.58,5.46,5.46,0,0,0-1.74-1.35,12.29,12.29,0,0,1-3.39-.15,10.65,10.65,0,0,1-4-1.69,3.13,3.13,0,0,1-.54-1.31,17.67,17.67,0,0,0-10.22,1.35c-.36.17-.75.4-.84.78S11.59,22.66,12.91,22.93Z" style="fill:#d1bd58"/><path d="M29.3,20.63a8.07,8.07,0,0,0-2.08-6.32A7,7,0,0,0,21,12.23a7.66,7.66,0,0,0,.29,6.68A11.37,11.37,0,0,0,29.3,20.63Z" style="fill:#fff8d4"/><path d="M27.51,20.87A11.44,11.44,0,0,1,21.21,19h0v0a7.75,7.75,0,0,1-.29-6.75l0,0h0a6.57,6.57,0,0,1,3.42.25,7.16,7.16,0,0,1,2.91,1.84,8.17,8.17,0,0,1,2.1,6.4v.07h-.07A10.93,10.93,0,0,1,27.51,20.87Zm-6.18-2a11.23,11.23,0,0,0,7.88,1.72,7.94,7.94,0,0,0-2.06-6.19A6.9,6.9,0,0,0,21,12.31,7.51,7.51,0,0,0,21.33,18.84Z" style="fill:#91843f"/><path d="M27.2,9.54a14.63,14.63,0,0,0,4.36,9.06,3.14,3.14,0,0,0,.52-1.67,8,8,0,0,0-1-4.66A5.68,5.68,0,0,0,27.2,9.54Z" style="fill:#fff8d4"/><path d="M31.57,18.74l-.07-.07a14.31,14.31,0,0,1-3-4.17,14.56,14.56,0,0,1-1.39-4.95V9.43l.11,0a5.78,5.78,0,0,1,4,2.77,8,8,0,0,1,1,4.72,3.26,3.26,0,0,1-.53,1.72ZM27.3,9.65a14.62,14.62,0,0,0,4.25,8.82A3.34,3.34,0,0,0,32,16.92a7.9,7.9,0,0,0-1-4.61A5.57,5.57,0,0,0,27.3,9.65Z" style="fill:#91843f"/><path d="M10.05,26.61a11.47,11.47,0,0,1-2.92-3.17,4.42,4.42,0,0,1-.71-1.74A3.64,3.64,0,0,1,7,19.35a16.47,16.47,0,0,1,1.57-2A7.87,7.87,0,0,0,14,23.49a14.27,14.27,0,0,0,7.39,1.21,27.92,27.92,0,0,0,7.35-1.79,6.3,6.3,0,0,0,3-1.84,1.84,1.84,0,0,0,0-1.18,3,3,0,0,1,1.57,1.41,3.91,3.91,0,0,1-.62,4.11A8.55,8.55,0,0,1,29,27.83C22.91,30.3,15.25,30.45,10.05,26.61Z" style="fill:#ebd778"/><path d="M20.05,29.69l-.86,0a16.48,16.48,0,0,1-9.19-3h0a11.62,11.62,0,0,1-2.94-3.19,4.63,4.63,0,0,1-.73-1.78,3.88,3.88,0,0,1,.6-2.41,11.39,11.39,0,0,1,1.16-1.5l.42-.5.12-.15,0,.19A7.77,7.77,0,0,0,14,23.4h0a14.17,14.17,0,0,0,7.35,1.2,27.38,27.38,0,0,0,7.32-1.78A6.37,6.37,0,0,0,31.64,21a1.76,1.76,0,0,0,0-1.11l-.06-.19.18.07a3.15,3.15,0,0,1,1.62,1.45,4,4,0,0,1-.63,4.21,8.84,8.84,0,0,1-3.65,2.45,25.73,25.73,0,0,1-4.83,1.4A24,24,0,0,1,20.05,29.69ZM8.53,17.56l-.31.35a12.74,12.74,0,0,0-1.14,1.48,3.64,3.64,0,0,0-.57,2.3,4.34,4.34,0,0,0,.7,1.71,11.42,11.42,0,0,0,2.9,3.14h0C14.8,30,22.22,30.48,29,27.74a8.21,8.21,0,0,0,3.57-2.39,3.82,3.82,0,0,0,.61-4A3,3,0,0,0,31.83,20a2,2,0,0,1,0,1.06v0h0a6.44,6.44,0,0,1-3,1.86,27.71,27.71,0,0,1-7.37,1.8A14.36,14.36,0,0,1,14,23.57a7.59,7.59,0,0,1-3.6-2.33A8,8,0,0,1,8.53,17.56Z" style="fill:#91843f"/><path d="M21.29,18.81v0a7.32,7.32,0,0,1-.21-6.56c.23,1.17-.08,2.41.28,3.54a5.08,5.08,0,0,0,1.48,2,9.81,9.81,0,0,0,6.4,2.73A11,11,0,0,1,21.29,18.81Z" style="fill:#ebd778"/><path d="M27.4,9.79a13.35,13.35,0,0,1,1.75,3.05,54,54,0,0,1,2.42,5.58A14.26,14.26,0,0,1,27.4,9.79Z" style="fill:#ebd778"/><path d="M21.27,12.23a9.54,9.54,0,0,1,3.05.43,6.23,6.23,0,0,1,2.61,1.59,9.28,9.28,0,0,1,1.6,2.56,8.78,8.78,0,0,1,.66,1.82,3.79,3.79,0,0,1,0,1.92,11.8,11.8,0,0,0-1-4.12,6.74,6.74,0,0,0-2.82-2.75,9.34,9.34,0,0,0-3.84-1,.66.66,0,0,1-.28-.05.22.22,0,0,1-.13-.22A.26.26,0,0,1,21.27,12.23Z" style="fill:#ebd778"/><path d="M27.4,9.79a1.64,1.64,0,0,1,.66.72,3.47,3.47,0,0,1,2.3,1A3.92,3.92,0,0,0,27.4,9.79Z" style="fill:#ebd778"/><path d="M31.36,17.91l.21.51a5.94,5.94,0,0,0,.37-3.12,5.9,5.9,0,0,1-.58,2.53C31.37,17.89,31.38,17.94,31.36,17.91Z" style="fill:#ebd778"/><path d="M21.53,12.87a6.43,6.43,0,0,0-.11,2.27,2.25,2.25,0,0,0,1.33,1.74,8.08,8.08,0,0,1-.82-2.44,1.09,1.09,0,0,1,.16-.94,1,1,0,0,1,.68-.22,5.33,5.33,0,0,1,2.11.58A5,5,0,0,0,21.53,12.87Z" style="fill:#ebd778"/><path d="M26,19.25a5.53,5.53,0,0,0,2.63.94,7.6,7.6,0,0,0-1-4.06l.7,3.72A3.58,3.58,0,0,0,26,19.25Z" style="fill:#ebd778"/><path d="M6.4,21.59a7.15,7.15,0,0,0,2.39,5.93,14.31,14.31,0,0,0,6.27,3.17,21.47,21.47,0,0,0,9.32.63,12.34,12.34,0,0,0,7-3.4A10,10,0,0,0,33.57,23a7,7,0,0,1-3,3.36A13.62,13.62,0,0,1,26,28.07c-5.53,1.36-11.43.85-16.11-2.39C8.27,24.57,6.58,23.55,6.4,21.59Z" style="fill:#b8a442"/><path d="M21.3,31.67A24.28,24.28,0,0,1,15,30.78a14.21,14.21,0,0,1-6.31-3.19,7.22,7.22,0,0,1-2.42-6h.17c.17,1.78,1.59,2.75,3.1,3.79l.34.23c4.34,3,10,3.85,16,2.37l.17,0a12.74,12.74,0,0,0,4.38-1.65,6.91,6.91,0,0,0,3-3.31l.17,0a9.8,9.8,0,0,1-2.23,5,9.15,9.15,0,0,1-2.87,2.09,15.38,15.38,0,0,1-4.16,1.33A17.25,17.25,0,0,1,21.3,31.67ZM6.51,22.5a6.78,6.78,0,0,0,2.34,5,14.05,14.05,0,0,0,6.24,3.15,21.23,21.23,0,0,0,9.27.62,12.21,12.21,0,0,0,6.93-3.37,9.7,9.7,0,0,0,2-4.07,8.2,8.2,0,0,1-2.72,2.64,13.11,13.11,0,0,1-4.44,1.69l-.17,0a22.55,22.55,0,0,1-8.4.53,17.51,17.51,0,0,1-7.78-2.94l-.33-.23A7.08,7.08,0,0,1,6.51,22.5Z" style="fill:#91843f"/><path d="M32.2,21.1a2.42,2.42,0,0,1,.29,2.77,5.41,5.41,0,0,1-2.12,2,16.89,16.89,0,0,1-8.61,2.36A23.38,23.38,0,0,1,13,26.52a11.45,11.45,0,0,1-5.44-3.87,2.18,2.18,0,0,1-.35-2.25c.36,1.34,1.44,3.46,6.86,5.88A19,19,0,0,0,30.34,25,4.17,4.17,0,0,0,32.2,21.1Z" style="fill:#fff"/><path d="M9.9,18.05a6.21,6.21,0,0,1,.2-3.84,8.93,8.93,0,0,1,5.51-5.16C18,8.31,20.64,8.27,25,9A14.22,14.22,0,0,0,18.63,7.2a10.53,10.53,0,0,0-6.28,1.85,8.35,8.35,0,0,0-3.43,5.5,6.93,6.93,0,0,0,2.11,6A4.4,4.4,0,0,1,9.9,18.05Z" style="fill:#fff"/><path d="M9,17.13l.85-.61A7.63,7.63,0,0,0,11,20.6,5.44,5.44,0,0,1,9,17.13Z" style="fill:#d6c467"/><path d="M12.89,21.6A44.57,44.57,0,0,0,30,21.43,16.74,16.74,0,0,1,12.89,21.6Z" style="fill:#fff"/><path d="M12.85,21.6a2.91,2.91,0,0,1,1.17.19.36.36,0,0,1-.33.31.64.64,0,0,1-.45-.16A3.51,3.51,0,0,0,12.85,21.6Z" style="fill:#d6c467"/><path d="M25.27,22.14c.24,0,.39.27.5.48s.26.46.5.47a.53.53,0,0,0,.25-.05,17.65,17.65,0,0,0,3.53-1.63Z" style="fill:#d6c467"/></svg>