<svg xmlns="http://www.w3.org/2000/svg" viewBox="0 0 40 40"><g id="Ebene_8" data-name="Ebene 8"><path d="M38.21,11.78A6.4,6.4,0,0,0,38,10a10.19,10.19,0,0,1-3.13-6.7,15.74,15.74,0,0,0-5.25-2.19,8.4,8.4,0,0,0-5,.83,9.59,9.59,0,0,0-3.75,3.48,7.11,7.11,0,0,0,.27,4.79,6.56,6.56,0,0,0,3.35,3.41,16.46,16.46,0,0,0,6.15.95,20.81,20.81,0,0,0,3.55-.84C35.66,13.36,37.23,13,38.21,11.78Z" style="fill:#db2a91"/><path d="M29.78,14.71a19.45,19.45,0,0,1-5.29-1h0a6.6,6.6,0,0,1-3.38-3.44,7.2,7.2,0,0,1-.28-4.82h0a9.59,9.59,0,0,1,3.77-3.5,8.46,8.46,0,0,1,5.06-.84,15.83,15.83,0,0,1,5.25,2.19l0,0v0A10.1,10.1,0,0,0,38.07,10h0v0a6.06,6.06,0,0,1,.18,1.75v0a7,7,0,0,1-3.79,1.94l-.24.07-.58.16a16.53,16.53,0,0,1-3,.68A8.64,8.64,0,0,1,29.78,14.71Zm-5.26-1.1a16.72,16.72,0,0,0,6.13.94,16.69,16.69,0,0,0,3-.67l.58-.16.24-.07a7,7,0,0,0,3.72-1.89A6,6,0,0,0,38,10.07,10.16,10.16,0,0,1,35.79,7a10.43,10.43,0,0,1-.95-3.65,15.51,15.51,0,0,0-5.2-2.16,8.23,8.23,0,0,0-5,.83,9.4,9.4,0,0,0-3.72,3.45,7,7,0,0,0,.28,4.74A6.54,6.54,0,0,0,24.52,13.61Z"/><path d="M20.76,9.1a3.29,3.29,0,0,0,.76,1.82,13.65,13.65,0,0,1,8.4-1.65A5.3,5.3,0,0,1,29.68,7,12.21,12.21,0,0,0,20.76,9.1Z" style="fill:#ba1174"/><path d="M35.83,11.64l1.12.9a.4.4,0,0,0,.15.09.42.42,0,0,0,.33-.11c.31-.22.72-.4.77-.78a2,2,0,0,0,0-.76,2.94,2.94,0,0,0-1.84-1.29,5.64,5.64,0,0,1,.1,1.08A1,1,0,0,1,35.83,11.64Z" style="fill:#ba1174"/><path d="M24.06,13.28a4.6,4.6,0,0,1,2.74-1.63,10.73,10.73,0,0,1,3.25-.08,7.55,7.55,0,0,1,2.4.54,3,3,0,0,1,1.68,1.72,10.13,10.13,0,0,0,3-1.19,4.45,4.45,0,0,0-1.31-1,9.24,9.24,0,0,1-2.55-.1,8.08,8.08,0,0,1-3-1.28,2.24,2.24,0,0,1-.41-1,13.24,13.24,0,0,0-7.68,1c-.27.13-.56.3-.63.59S23.07,13.08,24.06,13.28Z" style="fill:#9e005d"/><path d="M29.35,23.18A6.56,6.56,0,0,1,28,23.05a4.59,4.59,0,0,1-1.73-.77,3.46,3.46,0,0,1-1.19-1.48.4.4,0,0,1,.1-.45.41.41,0,0,1,.46-.06.52.52,0,0,1,.33.44v.05a3.34,3.34,0,0,0,2.2,1.47,8,8,0,0,0,3.25-.13A4,4,0,0,0,33,21.58a1.31,1.31,0,0,0,.66-1.15.41.41,0,0,1,.81-.06,2.12,2.12,0,0,1-1,1.88,5.06,5.06,0,0,1-1.85.67A12.39,12.39,0,0,1,29.35,23.18Zm-4.16-2.45a.17.17,0,0,0,0,.07A.17.17,0,0,1,25.19,20.73Zm0,0Zm0,0Z" style="fill:#0071bc"/><path d="M29.44,25.52h0a3.73,3.73,0,0,1-2.82-1.39.31.31,0,0,1,.05-.41.3.3,0,0,1,.41.05,3,3,0,0,0,4.75.06.29.29,0,0,1,.45.36A3.66,3.66,0,0,1,29.44,25.52Z" style="fill:#0071bc"/><path d="M36.37,11.55A6.07,6.07,0,0,0,34.81,6.8a5.24,5.24,0,0,0-4.7-1.56,5.76,5.76,0,0,0,.22,5A8.51,8.51,0,0,0,36.37,11.55Z" style="fill:#fff"/><path d="M35,11.72A8.55,8.55,0,0,1,30.3,10.3h0v0a5.79,5.79,0,0,1-.22-5.06v0h0a5.14,5.14,0,0,1,2.57.19,5.33,5.33,0,0,1,2.18,1.39,6.12,6.12,0,0,1,1.58,4.8v0h0A8.78,8.78,0,0,1,35,11.72Zm-4.65-1.51a8.42,8.42,0,0,0,5.94,1.29,6,6,0,0,0-1.55-4.66,5.19,5.19,0,0,0-4.61-1.55A5.65,5.65,0,0,0,30.38,10.21Z"/><path d="M34.8,3.22A11,11,0,0,0,38.07,10a2.37,2.37,0,0,0,.39-1.26,5.91,5.91,0,0,0-.74-3.5A4.21,4.21,0,0,0,34.8,3.22Z" style="fill:#fff"/><path d="M38.08,10.12l0,0a11.06,11.06,0,0,1-3.29-6.85V3.15h.07a4,4,0,0,1,1.73.72,4.36,4.36,0,0,1,1.24,1.36,6,6,0,0,1,.75,3.54,2.43,2.43,0,0,1-.4,1.28ZM34.86,3.29a11,11,0,0,0,3.2,6.65,2.35,2.35,0,0,0,.34-1.17,5.86,5.86,0,0,0-.73-3.47A4.18,4.18,0,0,0,34.86,3.29Z"/><path d="M21.91,16a8.54,8.54,0,0,1-2.19-2.37,3.24,3.24,0,0,1-.54-1.32,2.77,2.77,0,0,1,.44-1.76,13.12,13.12,0,0,1,1.18-1.5,5.92,5.92,0,0,0,4.07,4.61,10.69,10.69,0,0,0,5.56.91,20.67,20.67,0,0,0,5.51-1.35,4.83,4.83,0,0,0,2.26-1.37,1.53,1.53,0,0,0,0-.9,2.3,2.3,0,0,1,1.18,1.06,3,3,0,0,1-.46,3.09A6.51,6.51,0,0,1,36.17,17C31.57,18.82,25.81,18.93,21.91,16Z" style="fill:#c2c2c2"/><path d="M29.43,18.35h-.65a12.4,12.4,0,0,1-6.9-2.25,8.68,8.68,0,0,1-2.21-2.39,3.47,3.47,0,0,1-.55-1.34,2.91,2.91,0,0,1,.45-1.8,8.31,8.31,0,0,1,.87-1.13l.32-.38L20.84,9l0,.12a5.86,5.86,0,0,0,4,4.56h0a10.66,10.66,0,0,0,5.52.9,20.67,20.67,0,0,0,5.5-1.34,4.82,4.82,0,0,0,2.22-1.35,1.37,1.37,0,0,0,0-.85l0-.12.12,0A2.36,2.36,0,0,1,39.4,12a3,3,0,0,1-.47,3.16A6.63,6.63,0,0,1,36.19,17a18.67,18.67,0,0,1-3.63,1A17.7,17.7,0,0,1,29.43,18.35ZM20.77,9.22l-.24.29a8.72,8.72,0,0,0-.86,1.11,2.72,2.72,0,0,0-.43,1.73,3.09,3.09,0,0,0,.53,1.28A8.64,8.64,0,0,0,22,16a12.62,12.62,0,0,0,7.52,2.23,18,18,0,0,0,6.68-1.33,6.18,6.18,0,0,0,2.69-1.79,2.91,2.91,0,0,0,.46-3,2.32,2.32,0,0,0-1-1,1.49,1.49,0,0,1,0,.81h0A4.94,4.94,0,0,1,36,13.32a21.32,21.32,0,0,1-5.53,1.35,10.79,10.79,0,0,1-5.58-.92A5.69,5.69,0,0,1,22.15,12,6,6,0,0,1,20.77,9.22Z"/><path d="M30.35,10.18v0a5.52,5.52,0,0,1-.16-4.93,23.27,23.27,0,0,0,.21,2.66,3.76,3.76,0,0,0,1.11,1.54,7.39,7.39,0,0,0,4.81,2A8.23,8.23,0,0,1,30.35,10.18Z" style="fill:#d4b0d2"/><path d="M35,3.4a9.85,9.85,0,0,1,1.31,2.3,39.86,39.86,0,0,1,1.82,4.19A10.68,10.68,0,0,1,35,3.4Z" style="fill:#d4b0d2"/><path d="M30.34,5.24a7,7,0,0,1,2.29.32,4.67,4.67,0,0,1,2,1.2,6.47,6.47,0,0,1,1.2,1.92,6.18,6.18,0,0,1,.5,1.36,2.74,2.74,0,0,1,0,1.45,8.76,8.76,0,0,0-.75-3.09A5,5,0,0,0,33.4,6.33a6.85,6.85,0,0,0-2.88-.76.78.78,0,0,1-.21,0,.19.19,0,0,1-.1-.17A.21.21,0,0,1,30.34,5.24Z" style="fill:#d4b0d2"/><path d="M35,3.4a1.31,1.31,0,0,1,.49.55,2.65,2.65,0,0,1,1.73.72A3,3,0,0,0,35,3.4Z" style="fill:#d4b0d2"/><path d="M37.92,9.51l.16.38a4.47,4.47,0,0,0,.28-2.34,4.41,4.41,0,0,1-.44,1.9S37.93,9.53,37.92,9.51Z" style="fill:#d4b0d2"/><path d="M30.53,5.72a4.91,4.91,0,0,0-.07,1.71,1.66,1.66,0,0,0,1,1.3,5.89,5.89,0,0,1-.61-1.83A.8.8,0,0,1,31,6.19.7.7,0,0,1,31.47,6a3.89,3.89,0,0,1,1.58.43A3.81,3.81,0,0,0,30.53,5.72Z" style="fill:#d4b0d2"/><path d="M33.87,10.51a4.12,4.12,0,0,0,2,.71,5.64,5.64,0,0,0-.77-3.05l.53,2.8A2.66,2.66,0,0,0,33.87,10.51Z" style="fill:#d4b0d2"/><path d="M19.16,12.28A5.36,5.36,0,0,0,21,16.73a10.74,10.74,0,0,0,4.72,2.38,16,16,0,0,0,7,.47A9.27,9.27,0,0,0,37.92,17a7.47,7.47,0,0,0,1.66-3.69,5.27,5.27,0,0,1-2.27,2.52,10.05,10.05,0,0,1-3.44,1.28,14.85,14.85,0,0,1-12.1-1.79C20.57,14.51,19.3,13.75,19.16,12.28Z" style="fill:#737373"/><path d="M30.36,19.84a18.37,18.37,0,0,1-4.7-.67,10.71,10.71,0,0,1-4.74-2.4,5.55,5.55,0,0,1-1.39-1.93,6.56,6.56,0,0,1-.42-2.56h.11c.13,1.34,1.2,2.08,2.33,2.86a2.2,2.2,0,0,1,.25.17,14.73,14.73,0,0,0,12.06,1.79l.12,0a9.52,9.52,0,0,0,3.3-1.24,5.18,5.18,0,0,0,2.25-2.49l.11,0A7.46,7.46,0,0,1,38,17.07a6.88,6.88,0,0,1-2.15,1.57,11.89,11.89,0,0,1-3.12,1A13.56,13.56,0,0,1,30.36,19.84ZM19.24,12.9A5.1,5.1,0,0,0,21,16.69a10.64,10.64,0,0,0,4.69,2.37,16,16,0,0,0,7,.46A9.12,9.12,0,0,0,37.88,17a7.37,7.37,0,0,0,1.54-3.13,6,6,0,0,1-2.07,2A9.72,9.72,0,0,1,34,17.17l-.13,0a17,17,0,0,1-6.31.4,13.16,13.16,0,0,1-5.83-2.21,2.2,2.2,0,0,1-.25-.17A5.18,5.18,0,0,1,19.24,12.9Z"/><path d="M29.44,25.36h0A3.48,3.48,0,0,1,26.71,24a.13.13,0,1,1,.2-.16A3.28,3.28,0,0,0,29.4,25.1a3.31,3.31,0,0,0,2.52-1.17.14.14,0,0,1,.18,0,.13.13,0,0,1,0,.18A3.5,3.5,0,0,1,29.44,25.36Z" style="fill:aqua"/><path d="M29.35,23a6,6,0,0,1-1.27-.13,4.46,4.46,0,0,1-1.65-.72,3.38,3.38,0,0,1-1.12-1.39.19.19,0,0,1,.05-.21.18.18,0,0,1,.21,0c.09,0,.21.11.21.24a.19.19,0,0,1,0,.08,3.56,3.56,0,0,0,2.39,1.66,8.47,8.47,0,0,0,3.34-.13,4.58,4.58,0,0,0,1.64-.57,1.59,1.59,0,0,0,.75-1.35.19.19,0,0,1,.37,0,1.91,1.91,0,0,1-.92,1.68,4.65,4.65,0,0,1-1.77.63A11.06,11.06,0,0,1,29.35,23Zm-3.94-2.23Zm0,0Zm0,0Z" style="fill:aqua"/><path d="M38.55,11.9A1.82,1.82,0,0,1,38.77,14a4,4,0,0,1-1.59,1.53,12.66,12.66,0,0,1-6.47,1.77A17.3,17.3,0,0,1,24.09,16,8.63,8.63,0,0,1,20,13.07a1.66,1.66,0,0,1-.27-1.69c.28,1,1.09,2.6,5.16,4.42a14.27,14.27,0,0,0,12.27-1A3.16,3.16,0,0,0,38.55,11.9Z" style="fill:#fff"/><path d="M21.8,9.61A4.57,4.57,0,0,1,22,6.73a6.72,6.72,0,0,1,4.14-3.88c1.81-.56,3.77-.58,7.05-.06a10.59,10.59,0,0,0-4.78-1.33,7.91,7.91,0,0,0-4.72,1.39A6.24,6.24,0,0,0,21.06,7a5.19,5.19,0,0,0,1.59,4.54A3.29,3.29,0,0,1,21.8,9.61Z" style="fill:#f09ece"/><path d="M21.1,8.92l.63-.46a5.82,5.82,0,0,0,.87,3.07A4.07,4.07,0,0,1,21.1,8.92Z" style="fill:#db56a4"/><path d="M24,12.28a33.32,33.32,0,0,0,12.86-.13A12.59,12.59,0,0,1,24,12.28Z" style="fill:#f09ece"/><path d="M24,12.28a2.21,2.21,0,0,1,.88.15.28.28,0,0,1-.24.23.5.5,0,0,1-.34-.12A2,2,0,0,0,24,12.28Z" style="fill:#db56a4"/><path d="M33.35,12.69c.18,0,.29.2.37.36s.2.34.38.35a.65.65,0,0,0,.19,0,12.42,12.42,0,0,0,2.64-1.23Z" style="fill:#db56a4"/><path d="M20,15.49a6.4,6.4,0,0,0-.18-1.74,10.29,10.29,0,0,1-3.13-6.7,15.78,15.78,0,0,0-5.24-2.19,8.42,8.42,0,0,0-5,.83A9.65,9.65,0,0,0,2.71,9.17,7.12,7.12,0,0,0,3,14a6.53,6.53,0,0,0,3.35,3.41,16.43,16.43,0,0,0,6.15.95A20.81,20.81,0,0,0,16,17.48C17.49,17.07,19.06,16.68,20,15.49Z" style="fill:#db2a91"/><path d="M11.62,18.42a19.59,19.59,0,0,1-5.3-1h0A6.55,6.55,0,0,1,2.94,14a7.14,7.14,0,0,1-.28-4.82h0a9.62,9.62,0,0,1,3.78-3.5A8.44,8.44,0,0,1,11.5,4.8,15.92,15.92,0,0,1,16.75,7l0,0V7a10.15,10.15,0,0,0,3.11,6.67h0v0a6.43,6.43,0,0,1,.18,1.75v0a7,7,0,0,1-3.8,1.94l-.23.07-.58.16a16.83,16.83,0,0,1-3,.68A8.44,8.44,0,0,1,11.62,18.42Zm-5.26-1.1a16.7,16.7,0,0,0,6.12.94,16.79,16.79,0,0,0,3-.67l.57-.16.24-.07A7,7,0,0,0,20,15.47a6.39,6.39,0,0,0-.17-1.69,10,10,0,0,1-2.18-3,10.22,10.22,0,0,1-.95-3.65,15.69,15.69,0,0,0-5.2-2.16,8.23,8.23,0,0,0-5,.83A9.4,9.4,0,0,0,2.77,9.2,7.09,7.09,0,0,0,3,13.94,6.56,6.56,0,0,0,6.36,17.32Z"/><path d="M2.6,12.81a3.29,3.29,0,0,0,.76,1.82A13.65,13.65,0,0,1,11.76,13a5,5,0,0,1-.24-2.31A12.18,12.18,0,0,0,2.6,12.81Z" style="fill:#ba1174"/><path d="M17.66,15.35l1.12.9a.37.37,0,0,0,.16.09.4.4,0,0,0,.32-.11c.32-.22.72-.4.78-.78a2.18,2.18,0,0,0,0-.76,3,3,0,0,0-1.85-1.29,4.94,4.94,0,0,1,.1,1.08A1,1,0,0,1,17.66,15.35Z" style="fill:#ba1174"/><path d="M5.9,17a4.54,4.54,0,0,1,2.74-1.63,10.72,10.72,0,0,1,3.25-.08,7.55,7.55,0,0,1,2.4.54A3,3,0,0,1,16,17.54a10,10,0,0,0,3-1.19,4.47,4.47,0,0,0-1.3-1,9.31,9.31,0,0,1-2.56-.1,8.22,8.22,0,0,1-3-1.28,2.37,2.37,0,0,1-.41-1,13.21,13.21,0,0,0-7.67,1c-.27.13-.57.3-.63.59S4.9,16.79,5.9,17Z" style="fill:#9e005d"/><path d="M11.18,26.89a6.64,6.64,0,0,1-1.32-.13A4.55,4.55,0,0,1,8.14,26a3.48,3.48,0,0,1-1.2-1.48.4.4,0,0,1,.11-.45A.41.41,0,0,1,7.51,24a.53.53,0,0,1,.33.44.09.09,0,0,1,0,0A3.36,3.36,0,0,0,10,26a8,8,0,0,0,3.24-.13,4,4,0,0,0,1.56-.54,1.36,1.36,0,0,0,.66-1.15.4.4,0,1,1,.8-.06,2.12,2.12,0,0,1-1,1.88,4.93,4.93,0,0,1-1.85.67A12.29,12.29,0,0,1,11.18,26.89ZM7,24.44v0Zm0,0Zm0,0Z" style="fill:#0071bc"/><path d="M11.27,29.23h0a3.7,3.7,0,0,1-2.81-1.39.29.29,0,0,1,.05-.41.29.29,0,0,1,.4.05,3.05,3.05,0,0,0,4.76.06.28.28,0,0,1,.44.36A3.65,3.65,0,0,1,11.27,29.23Z" style="fill:#0071bc"/><path d="M18.21,15.26a6.11,6.11,0,0,0-1.56-4.75A5.24,5.24,0,0,0,12,9a5.73,5.73,0,0,0,.22,5A8.49,8.49,0,0,0,18.21,15.26Z" style="fill:#fff"/><path d="M16.86,15.43A8.52,8.52,0,0,1,12.14,14h0v0a5.76,5.76,0,0,1-.22-5.06v0h0a5.1,5.1,0,0,1,2.56.19,5.37,5.37,0,0,1,2.19,1.39,6.15,6.15,0,0,1,1.57,4.8v0h0A8.81,8.81,0,0,1,16.86,15.43Zm-4.65-1.51a8.42,8.42,0,0,0,5.94,1.29,6,6,0,0,0-1.55-4.66A5.17,5.17,0,0,0,12,9,5.65,5.65,0,0,0,12.21,13.92Z"/><path d="M16.63,6.93a11,11,0,0,0,3.28,6.81,2.37,2.37,0,0,0,.39-1.26A6,6,0,0,0,19.56,9,4.23,4.23,0,0,0,16.63,6.93Z" style="fill:#fff"/><path d="M19.91,13.83l0-.05a10.85,10.85,0,0,1-2.26-3.13,11,11,0,0,1-1-3.72V6.86h.07a4,4,0,0,1,1.72.72A4.52,4.52,0,0,1,19.61,9a6,6,0,0,1,.74,3.54,2.34,2.34,0,0,1-.4,1.28ZM16.7,7a11,11,0,0,0,3.2,6.65,2.46,2.46,0,0,0,.34-1.17A5.94,5.94,0,0,0,19.51,9,4.2,4.2,0,0,0,16.7,7Z"/><path d="M3.75,19.75a8.42,8.42,0,0,1-2.2-2.37A3.37,3.37,0,0,1,1,16.06a2.77,2.77,0,0,1,.44-1.76,13.12,13.12,0,0,1,1.18-1.5,5.92,5.92,0,0,0,4.07,4.61,10.65,10.65,0,0,0,5.55.91A20.74,20.74,0,0,0,17.78,17,4.75,4.75,0,0,0,20,15.6a1.39,1.39,0,0,0,0-.9,2.27,2.27,0,0,1,1.18,1.06,2.93,2.93,0,0,1-.46,3.09A6.41,6.41,0,0,1,18,20.67C13.41,22.53,7.65,22.64,3.75,19.75Z" style="fill:#c2c2c2"/><path d="M11.26,22.06h-.65a12.42,12.42,0,0,1-6.9-2.25A8.84,8.84,0,0,1,1.5,17.41,3.46,3.46,0,0,1,1,16.07a2.84,2.84,0,0,1,.45-1.8,8.23,8.23,0,0,1,.86-1.13c.11-.12.22-.25.32-.38l.08-.09,0,.12a5.85,5.85,0,0,0,4,4.56h0a10.68,10.68,0,0,0,5.53.9,20.67,20.67,0,0,0,5.5-1.34A4.87,4.87,0,0,0,20,15.57a1.37,1.37,0,0,0,0-.85l-.05-.12.12.05a2.29,2.29,0,0,1,1.21,1.08,3,3,0,0,1-.46,3.16A6.63,6.63,0,0,1,18,20.72a19.09,19.09,0,0,1-3.63,1.05A17.81,17.81,0,0,1,11.26,22.06ZM2.61,12.93l-.25.29a7.8,7.8,0,0,0-.85,1.11,2.72,2.72,0,0,0-.44,1.73,3.38,3.38,0,0,0,.53,1.28,8.8,8.8,0,0,0,2.18,2.37,12.68,12.68,0,0,0,7.53,2.23A17.9,17.9,0,0,0,18,20.61a6.29,6.29,0,0,0,2.7-1.79,2.91,2.91,0,0,0,.45-3,2.25,2.25,0,0,0-1-1,1.59,1.59,0,0,1,0,.81h0A5,5,0,0,1,17.8,17a21.32,21.32,0,0,1-5.53,1.35,10.81,10.81,0,0,1-5.59-.92A5.74,5.74,0,0,1,4,15.71,6,6,0,0,1,2.61,12.93Z"/><path d="M12.19,13.89v0A5.52,5.52,0,0,1,12,9a21.21,21.21,0,0,0,.21,2.66,3.76,3.76,0,0,0,1.11,1.54,7.34,7.34,0,0,0,4.8,2.05A8.21,8.21,0,0,1,12.19,13.89Z" style="fill:#d4b0d2"/><path d="M16.78,7.11a9.51,9.51,0,0,1,1.31,2.3,42.14,42.14,0,0,1,1.83,4.19A10.69,10.69,0,0,1,16.78,7.11Z" style="fill:#d4b0d2"/><path d="M12.18,9a7.13,7.13,0,0,1,2.29.32,4.8,4.8,0,0,1,2,1.2,6.91,6.91,0,0,1,1.2,1.92,7.4,7.4,0,0,1,.5,1.36,3,3,0,0,1,0,1.45,9,9,0,0,0-.75-3.09A5.1,5.1,0,0,0,15.24,10a6.94,6.94,0,0,0-2.89-.76.65.65,0,0,1-.2,0,.19.19,0,0,1-.1-.17A.17.17,0,0,1,12.18,9Z" style="fill:#d4b0d2"/><path d="M16.78,7.11a1.27,1.27,0,0,1,.5.55A2.65,2.65,0,0,1,19,8.38,3,3,0,0,0,16.78,7.11Z" style="fill:#d4b0d2"/><path d="M19.76,13.22l.15.38a4.27,4.27,0,0,0,.28-2.34,4.55,4.55,0,0,1-.43,1.9S19.77,13.24,19.76,13.22Z" style="fill:#d4b0d2"/><path d="M12.37,9.43a4.92,4.92,0,0,0-.08,1.71,1.69,1.69,0,0,0,1,1.3,5.66,5.66,0,0,1-.62-1.83.8.8,0,0,1,.13-.71.67.67,0,0,1,.5-.16,3.93,3.93,0,0,1,1.59.43A3.83,3.83,0,0,0,12.37,9.43Z" style="fill:#d4b0d2"/><path d="M15.71,14.22a4.12,4.12,0,0,0,2,.71,5.64,5.64,0,0,0-.77-3l.53,2.8A2.65,2.65,0,0,0,15.71,14.22Z" style="fill:#d4b0d2"/><path d="M1,16a5.36,5.36,0,0,0,1.8,4.45,10.65,10.65,0,0,0,4.71,2.38,16,16,0,0,0,7,.47,9.3,9.3,0,0,0,5.25-2.55,7.56,7.56,0,0,0,1.66-3.69,5.32,5.32,0,0,1-2.27,2.52,10.13,10.13,0,0,1-3.44,1.28A14.86,14.86,0,0,1,3.6,19.06C2.4,18.22,1.14,17.46,1,16Z" style="fill:#737373"/><path d="M12.2,23.55a18.31,18.31,0,0,1-4.7-.67,10.65,10.65,0,0,1-4.74-2.4,5.46,5.46,0,0,1-1.4-1.93A6.56,6.56,0,0,1,.94,16h.12c.12,1.34,1.19,2.08,2.33,2.86l.25.17a14.7,14.7,0,0,0,12,1.79l.13,0a9.54,9.54,0,0,0,3.29-1.24A5.18,5.18,0,0,0,21.36,17l.11,0a7.39,7.39,0,0,1-1.67,3.73,6.93,6.93,0,0,1-2.16,1.57,11.89,11.89,0,0,1-3.12,1A13.44,13.44,0,0,1,12.2,23.55ZM1.07,16.61A5.11,5.11,0,0,0,2.84,20.4a10.53,10.53,0,0,0,4.69,2.37,16,16,0,0,0,7,.46,9.12,9.12,0,0,0,5.21-2.53,7.25,7.25,0,0,0,1.54-3.13,6,6,0,0,1-2.07,2,9.67,9.67,0,0,1-3.33,1.27l-.13,0a17,17,0,0,1-6.31.4A13.15,13.15,0,0,1,3.57,19.1l-.25-.17A5.29,5.29,0,0,1,1.07,16.61Z"/><path d="M11.27,29.07h0a3.46,3.46,0,0,1-2.68-1.32.12.12,0,0,1,0-.18.14.14,0,0,1,.18,0,3.2,3.2,0,0,0,5,.06.13.13,0,0,1,.2.16A3.51,3.51,0,0,1,11.27,29.07Z" style="fill:aqua"/><path d="M11.18,26.67a6.08,6.08,0,0,1-1.27-.13,4.42,4.42,0,0,1-1.64-.72,3.23,3.23,0,0,1-1.12-1.39.2.2,0,0,1,0-.21.18.18,0,0,1,.21,0c.09,0,.22.11.22.24a.19.19,0,0,1,0,.08A3.54,3.54,0,0,0,10,26.18a8.47,8.47,0,0,0,3.34-.13A4.47,4.47,0,0,0,15,25.48a1.58,1.58,0,0,0,.76-1.35.18.18,0,0,1,.16-.2.17.17,0,0,1,.2.17,1.91,1.91,0,0,1-.91,1.68,4.65,4.65,0,0,1-1.77.63A11.07,11.07,0,0,1,11.18,26.67ZM7.25,24.44Zm0,0Zm0,0Z" style="fill:aqua"/><path d="M20.38,15.61a1.84,1.84,0,0,1,.23,2.09A4.13,4.13,0,0,1,19,19.23,12.66,12.66,0,0,1,12.54,21a17.38,17.38,0,0,1-6.62-1.32,8.6,8.6,0,0,1-4.08-2.9,1.64,1.64,0,0,1-.27-1.69c.27,1,1.09,2.6,5.16,4.42a14.25,14.25,0,0,0,12.26-1A3.11,3.11,0,0,0,20.38,15.61Z" style="fill:#fff"/><path d="M3.63,13.32a4.72,4.72,0,0,1,.15-2.88A6.72,6.72,0,0,1,7.92,6.56C9.73,6,11.7,6,15,6.5a10.59,10.59,0,0,0-4.78-1.33A7.93,7.93,0,0,0,5.47,6.56a6.28,6.28,0,0,0-2.58,4.13,5.22,5.22,0,0,0,1.59,4.54A3.29,3.29,0,0,1,3.63,13.32Z" style="fill:#f09ece"/><path d="M2.93,12.63l.64-.46a5.72,5.72,0,0,0,.86,3.07A4.11,4.11,0,0,1,2.93,12.63Z" style="fill:#db56a4"/><path d="M5.88,16a33.33,33.33,0,0,0,12.86-.13A12.59,12.59,0,0,1,5.88,16Z" style="fill:#f09ece"/><path d="M5.85,16a2.21,2.21,0,0,1,.88.15.29.29,0,0,1-.25.23.54.54,0,0,1-.34-.12A2.52,2.52,0,0,0,5.85,16Z" style="fill:#db56a4"/><path d="M15.18,16.4c.18,0,.29.2.37.36s.2.34.38.35a.58.58,0,0,0,.19,0,12.28,12.28,0,0,0,2.65-1.23Z" style="fill:#db56a4"/><path d="M31.18,25.26A6.4,6.4,0,0,0,31,23.52a10.19,10.19,0,0,1-3.13-6.7,15.74,15.74,0,0,0-5.25-2.19,8.39,8.39,0,0,0-5,.84A9.51,9.51,0,0,0,13.85,19a7.09,7.09,0,0,0,.27,4.78,6.56,6.56,0,0,0,3.35,3.41,16.46,16.46,0,0,0,6.15.95,19.91,19.91,0,0,0,3.55-.84C28.63,26.84,30.2,26.45,31.18,25.26Z" style="fill:#db2a91"/><path d="M22.75,28.19a19.59,19.59,0,0,1-5.3-1h0a6.66,6.66,0,0,1-3.38-3.45,7.13,7.13,0,0,1-.28-4.82h0a9.52,9.52,0,0,1,3.77-3.5,8.39,8.39,0,0,1,5.06-.85,16,16,0,0,1,5.25,2.19l0,0v0A10.1,10.1,0,0,0,31,23.48h0v0a6.5,6.5,0,0,1,.18,1.76v0h0a7.05,7.05,0,0,1-3.79,1.94l-.24.07-.58.17a16.51,16.51,0,0,1-3,.67A8.64,8.64,0,0,1,22.75,28.19Zm-5.26-1.1a16.72,16.72,0,0,0,6.13.94,16.66,16.66,0,0,0,3-.66l.58-.17.24-.07a7,7,0,0,0,3.72-1.89,5.93,5.93,0,0,0-.18-1.68,10.29,10.29,0,0,1-2.18-3,10.43,10.43,0,0,1-1-3.65,15.54,15.54,0,0,0-5.2-2.17,8.3,8.3,0,0,0-5,.83A9.4,9.4,0,0,0,13.9,19a7,7,0,0,0,.28,4.74A6.47,6.47,0,0,0,17.49,27.09Z"/><path d="M13.73,22.59a3.29,3.29,0,0,0,.76,1.81,13.65,13.65,0,0,1,8.4-1.65,5.3,5.3,0,0,1-.24-2.31A12.16,12.16,0,0,0,13.73,22.59Z" style="fill:#ba1174"/><path d="M28.8,25.12l1.12.91a1.19,1.19,0,0,0,.15.09A.47.47,0,0,0,30.4,26c.31-.22.72-.4.77-.78a2.21,2.21,0,0,0,0-.76,2.93,2.93,0,0,0-1.84-1.28,5.54,5.54,0,0,1,.1,1.07A1,1,0,0,1,28.8,25.12Z" style="fill:#ba1174"/><path d="M17,26.76a4.6,4.6,0,0,1,2.74-1.63A10.42,10.42,0,0,1,23,25.06a7.54,7.54,0,0,1,2.4.53,3.05,3.05,0,0,1,1.68,1.72,9.87,9.87,0,0,0,3-1.19,4.16,4.16,0,0,0-1.31-1A9.66,9.66,0,0,1,26.27,25a7.89,7.89,0,0,1-3-1.27,2.3,2.3,0,0,1-.41-1,13.25,13.25,0,0,0-7.68,1,1,1,0,0,0-.63.59C14.53,24.55,16,26.56,17,26.76Z" style="fill:#9e005d"/><path d="M22.32,36.66A6.56,6.56,0,0,1,21,36.53a4.74,4.74,0,0,1-1.73-.76,3.44,3.44,0,0,1-1.19-1.48.4.4,0,0,1,.1-.46.41.41,0,0,1,.46,0,.49.49,0,0,1,.33.43v0a3.32,3.32,0,0,0,2.2,1.48,8.41,8.41,0,0,0,3.25-.13A4.33,4.33,0,0,0,26,35.07a1.36,1.36,0,0,0,.66-1.15.41.41,0,0,1,.37-.44.41.41,0,0,1,.44.37,2.13,2.13,0,0,1-1,1.89,5.09,5.09,0,0,1-1.85.66A11.38,11.38,0,0,1,22.32,36.66Zm-4.16-2.45a.15.15,0,0,0,0,.07A.15.15,0,0,1,18.16,34.21Zm0,0Zm0,0Z" style="fill:#0071bc"/><path d="M22.41,39h-.05a3.66,3.66,0,0,1-2.81-1.39.29.29,0,1,1,.46-.36,3,3,0,0,0,4.75.06.29.29,0,0,1,.45.37A3.65,3.65,0,0,1,22.41,39Z" style="fill:#0071bc"/><path d="M29.34,25a6.08,6.08,0,0,0-1.56-4.76,5.24,5.24,0,0,0-4.7-1.56,5.76,5.76,0,0,0,.22,5A8.55,8.55,0,0,0,29.34,25Z" style="fill:#fff"/><path d="M28,25.2a8.62,8.62,0,0,1-4.73-1.41h0A5.81,5.81,0,0,1,23,18.7v0h0a4.93,4.93,0,0,1,2.57.19,5.42,5.42,0,0,1,2.18,1.38A6.12,6.12,0,0,1,29.4,25v.05h0A7.68,7.68,0,0,1,28,25.2Zm-4.65-1.5A8.51,8.51,0,0,0,29.29,25a6.06,6.06,0,0,0-1.55-4.67,5.18,5.18,0,0,0-4.61-1.54A5.65,5.65,0,0,0,23.35,23.7Z"/><path d="M27.77,16.7A11,11,0,0,0,31,23.51a2.37,2.37,0,0,0,.39-1.26,5.92,5.92,0,0,0-.74-3.5A4.26,4.26,0,0,0,27.77,16.7Z" style="fill:#fff"/><path d="M31.05,23.6,31,23.55a11.07,11.07,0,0,1-3.29-6.84v-.08h.07a4,4,0,0,1,1.73.72,4.61,4.61,0,0,1,1.24,1.36,6,6,0,0,1,.75,3.54,2.46,2.46,0,0,1-.4,1.29Zm-3.22-6.83A11,11,0,0,0,31,23.42a2.35,2.35,0,0,0,.34-1.17,5.86,5.86,0,0,0-.73-3.47A4.21,4.21,0,0,0,27.83,16.77Z"/><path d="M14.88,29.53a8.72,8.72,0,0,1-2.19-2.38,3.26,3.26,0,0,1-.54-1.31,2.78,2.78,0,0,1,.44-1.77,13.12,13.12,0,0,1,1.18-1.5,5.91,5.91,0,0,0,4.07,4.61,10.69,10.69,0,0,0,5.56.91,21,21,0,0,0,5.51-1.34,4.85,4.85,0,0,0,2.25-1.38,1.42,1.42,0,0,0,0-.89,2.24,2.24,0,0,1,1.18,1.05,3,3,0,0,1-.46,3.09,6.42,6.42,0,0,1-2.72,1.82C24.54,32.3,18.78,32.41,14.88,29.53Z" style="fill:#c2c2c2"/><path d="M22.39,31.83h-.64a12.32,12.32,0,0,1-6.9-2.25,8.53,8.53,0,0,1-2.21-2.39,3.47,3.47,0,0,1-.55-1.34,2.92,2.92,0,0,1,.45-1.8,9,9,0,0,1,.87-1.13l.32-.37.08-.1,0,.12a5.88,5.88,0,0,0,4,4.57h0a10.81,10.81,0,0,0,5.53.91,20.73,20.73,0,0,0,5.5-1.35,4.74,4.74,0,0,0,2.22-1.35,1.34,1.34,0,0,0,0-.84l0-.12.12,0a2.38,2.38,0,0,1,1.21,1.09,3,3,0,0,1-.47,3.15,6.54,6.54,0,0,1-2.74,1.83,18,18,0,0,1-3.63,1.05A16.83,16.83,0,0,1,22.39,31.83ZM13.74,22.7,13.5,23a8.72,8.72,0,0,0-.86,1.11,2.72,2.72,0,0,0-.43,1.73,3.27,3.27,0,0,0,.52,1.29,8.64,8.64,0,0,0,2.19,2.36,12.63,12.63,0,0,0,7.52,2.24,18,18,0,0,0,6.68-1.33,6.19,6.19,0,0,0,2.69-1.8,2.91,2.91,0,0,0,.46-3,2.24,2.24,0,0,0-1-1,1.45,1.45,0,0,1,0,.8h0a4.86,4.86,0,0,1-2.28,1.4,20.53,20.53,0,0,1-5.53,1.35,10.89,10.89,0,0,1-5.58-.91,5.76,5.76,0,0,1-2.7-1.75A6,6,0,0,1,13.74,22.7Z"/><path d="M23.32,23.66v0a5.5,5.5,0,0,1-.16-4.92,23.1,23.1,0,0,0,.21,2.65A3.76,3.76,0,0,0,24.48,23,7.34,7.34,0,0,0,29.29,25,8.18,8.18,0,0,1,23.32,23.66Z" style="fill:#d4b0d2"/><path d="M27.92,16.89a9.59,9.59,0,0,1,1.31,2.29,40.79,40.79,0,0,1,1.82,4.19A10.68,10.68,0,0,1,27.92,16.89Z" style="fill:#d4b0d2"/><path d="M23.31,18.72A7,7,0,0,1,25.6,19a4.67,4.67,0,0,1,2,1.2,6.82,6.82,0,0,1,1.2,1.92,6.08,6.08,0,0,1,.5,1.37,2.81,2.81,0,0,1,0,1.44,8.81,8.81,0,0,0-.75-3.09,5,5,0,0,0-2.12-2.07,7,7,0,0,0-2.88-.76.78.78,0,0,1-.21,0,.18.18,0,0,1-.1-.17C23.19,18.77,23.29,18.72,23.31,18.72Z" style="fill:#d4b0d2"/><path d="M27.92,16.89a1.28,1.28,0,0,1,.49.54,2.61,2.61,0,0,1,1.73.73A2.93,2.93,0,0,0,27.92,16.89Z" style="fill:#d4b0d2"/><path d="M30.89,23l.16.38A4.44,4.44,0,0,0,31.33,21a4.41,4.41,0,0,1-.44,1.9S30.9,23,30.89,23Z" style="fill:#d4b0d2"/><path d="M23.5,19.2a4.93,4.93,0,0,0-.07,1.71,1.67,1.67,0,0,0,1,1.31,6,6,0,0,1-.61-1.84.8.8,0,0,1,.12-.71.74.74,0,0,1,.51-.16,4.23,4.23,0,0,1,1.58.43A3.87,3.87,0,0,0,23.5,19.2Z" style="fill:#d4b0d2"/><path d="M26.84,24a4.23,4.23,0,0,0,2,.71,5.65,5.65,0,0,0-.77-3.06l.53,2.8A2.65,2.65,0,0,0,26.84,24Z" style="fill:#d4b0d2"/><path d="M12.13,25.76a5.36,5.36,0,0,0,1.8,4.45,10.74,10.74,0,0,0,4.72,2.38,15.91,15.91,0,0,0,7,.47,9.21,9.21,0,0,0,5.25-2.55,7.42,7.42,0,0,0,1.66-3.69,5.22,5.22,0,0,1-2.27,2.52,10.36,10.36,0,0,1-3.44,1.29,14.85,14.85,0,0,1-12.1-1.8C13.54,28,12.27,27.23,12.13,25.76Z" style="fill:#737373"/><path d="M23.33,33.32a17.94,17.94,0,0,1-4.7-.67,10.71,10.71,0,0,1-4.74-2.4,5.46,5.46,0,0,1-1.39-1.93,6.53,6.53,0,0,1-.42-2.56h.11c.13,1.34,1.2,2.08,2.33,2.86l.25.17a14.69,14.69,0,0,0,12.06,1.79l.12,0a9.74,9.74,0,0,0,3.3-1.25,5.11,5.11,0,0,0,2.24-2.49l.12,0a7.42,7.42,0,0,1-1.68,3.72,6.88,6.88,0,0,1-2.15,1.57,11.53,11.53,0,0,1-3.12,1A12.63,12.63,0,0,1,23.33,33.32ZM12.21,26.38A5.1,5.1,0,0,0,14,30.17a10.54,10.54,0,0,0,4.69,2.37,16,16,0,0,0,7,.47,9.24,9.24,0,0,0,5.22-2.53,7.42,7.42,0,0,0,1.54-3.13,6.22,6.22,0,0,1-2.07,2A10,10,0,0,1,27,30.65l-.13,0a17,17,0,0,1-6.31.4,13.1,13.1,0,0,1-5.83-2.2l-.25-.18A5.14,5.14,0,0,1,12.21,26.38Z"/><path d="M22.41,38.84h0a3.49,3.49,0,0,1-2.69-1.33.14.14,0,0,1,0-.18.14.14,0,0,1,.18,0,3.21,3.21,0,0,0,5,.06.14.14,0,0,1,.18,0,.13.13,0,0,1,0,.18A3.47,3.47,0,0,1,22.41,38.84Z" style="fill:aqua"/><path d="M22.32,36.44a5.42,5.42,0,0,1-1.27-.13,4.39,4.39,0,0,1-1.65-.72,3.26,3.26,0,0,1-1.12-1.39.17.17,0,0,1,0-.2.17.17,0,0,1,.21,0c.09.05.21.11.21.24a.19.19,0,0,1,0,.08A3.53,3.53,0,0,0,21.12,36a8.29,8.29,0,0,0,3.34-.13,4.47,4.47,0,0,0,1.63-.57,1.58,1.58,0,0,0,.76-1.35.19.19,0,1,1,.37,0,1.94,1.94,0,0,1-.92,1.69,4.63,4.63,0,0,1-1.77.62A11.06,11.06,0,0,1,22.32,36.44Zm-3.94-2.23Zm0,0Zm0,0Z" style="fill:aqua"/><path d="M31.52,25.38a1.82,1.82,0,0,1,.22,2.09A4,4,0,0,1,30.15,29a12.66,12.66,0,0,1-6.47,1.77,17.48,17.48,0,0,1-6.62-1.31A8.58,8.58,0,0,1,13,26.55a1.65,1.65,0,0,1-.27-1.69c.28,1,1.09,2.6,5.16,4.42a14.27,14.27,0,0,0,12.27-1A3.15,3.15,0,0,0,31.52,25.38Z" style="fill:#fff"/><path d="M14.77,23.09a4.58,4.58,0,0,1,.15-2.88,6.72,6.72,0,0,1,4.13-3.88c1.82-.55,3.78-.58,7.06-.06a10.72,10.72,0,0,0-4.78-1.33,7.89,7.89,0,0,0-4.72,1.39A6.24,6.24,0,0,0,14,20.46,5.18,5.18,0,0,0,15.62,25,3.26,3.26,0,0,1,14.77,23.09Z" style="fill:#f09ece"/><path d="M14.07,22.4,14.7,22A5.81,5.81,0,0,0,15.57,25,4,4,0,0,1,14.07,22.4Z" style="fill:#db56a4"/><path d="M17,25.76a33.52,33.52,0,0,0,12.86-.12A12.59,12.59,0,0,1,17,25.76Z" style="fill:#f09ece"/><path d="M17,25.76a2.21,2.21,0,0,1,.88.15.27.27,0,0,1-.24.23.46.46,0,0,1-.34-.12C17.18,25.94,17.11,25.85,17,25.76Z" style="fill:#db56a4"/><path d="M26.32,26.17c.18,0,.29.2.37.36s.2.34.38.35a.42.42,0,0,0,.19,0,12.93,12.93,0,0,0,2.64-1.23Z" style="fill:#db56a4"/></g></svg>